<svg fill="none" height="400" viewBox="0 0 1040 400" width="1040" xmlns="http://www.w3.org/2000/svg" xmlns:xlink="http://www.w3.org/1999/xlink"><clipPath id="a"><path d="m0 0h1040v400h-1040z"/></clipPath><clipPath id="b"><path d="m0 0h11.6413v6.98799h-11.6413z" transform="matrix(.99991125 -.01332275 .01332275 .99991125 619.811 230.243)"/></clipPath><clipPath id="c"><path d="m0 0h11.7459v5.13882h-11.7459z" transform="matrix(.99884161 .04811899 -.04811899 .99884161 376.247 146.947)"/></clipPath><g clip-path="url(#a)"><path d="m0 0h1040v400h-1040z" fill="#733c86"/><g opacity=".4"><rect height="23.2975" rx="11.6488" stroke="#cda5dc" stroke-width="2" width="86.2285" x="106.784" y="215.8"/><g fill="#cda5dc"><path d="m120.142 232.223c2.637 0 4.775-2.138 4.775-4.775s-2.138-4.775-4.775-4.775-4.775 2.138-4.775 4.775 2.138 4.775 4.775 4.775z"/><path d="m135.02 232.223c2.637 0 4.775-2.138 4.775-4.775s-2.138-4.775-4.775-4.775-4.775 2.138-4.775 4.775 2.138 4.775 4.775 4.775z"/><path d="m149.898 232.223c2.638 0 4.775-2.138 4.775-4.775s-2.137-4.775-4.775-4.775c-2.637 0-4.775 2.138-4.775 4.775s2.138 4.775 4.775 4.775z"/><path d="m164.777 232.223c2.637 0 4.775-2.138 4.775-4.775s-2.138-4.775-4.775-4.775c-2.638 0-4.775 2.138-4.775 4.775s2.137 4.775 4.775 4.775z"/><path d="m179.655 232.223c2.637 0 4.775-2.138 4.775-4.775s-2.138-4.775-4.775-4.775-4.775 2.138-4.775 4.775 2.138 4.775 4.775 4.775z"/></g></g><g opacity=".4"><rect height="31.4631" rx="15.7316" stroke="#cda5dc" stroke-width="2" width="114.707" x="843.039" y="204.607"/><g fill="#cda5dc"><path d="m861.031 226.654c3.489 0 6.316-2.828 6.316-6.316s-2.827-6.316-6.316-6.316c-3.488 0-6.316 2.828-6.316 6.316s2.828 6.316 6.316 6.316z"/><path d="m880.712 226.654c3.488 0 6.316-2.828 6.316-6.316s-2.828-6.316-6.316-6.316c-3.489 0-6.317 2.828-6.317 6.316s2.828 6.316 6.317 6.316z"/><path d="m900.392 226.654c3.488 0 6.316-2.828 6.316-6.316s-2.828-6.316-6.316-6.316-6.316 2.828-6.316 6.316 2.828 6.316 6.316 6.316z"/><path d="m920.073 226.654c3.488 0 6.316-2.828 6.316-6.316s-2.828-6.316-6.316-6.316c-3.489 0-6.316 2.828-6.316 6.316s2.827 6.316 6.316 6.316z"/><path d="m939.753 226.654c3.489 0 6.316-2.828 6.316-6.316s-2.827-6.316-6.316-6.316c-3.488 0-6.316 2.828-6.316 6.316s2.828 6.316 6.316 6.316z"/></g></g><path d="m507.957 109.698.002.017.003.017c.747 4.184 4.555 6.839 8.739 6.093 4.184-.747 6.839-4.555 6.093-8.739s-4.555-6.839-8.739-6.093l-.017.003-.017.004c-4.011.859-6.645 4.637-6.064 8.698zm-24.993-26.5447 7.842-1.51 1.337 7.4964.176.9844.984-.1756 8.087-1.4427 5.38 3.7511.476.3319.524-.2486c7.21-3.4191 15.959-1.541 21.09 4.6484 5.144 6.2064 5.64 15.0034 1.026 21.6294-4.673 6.405-13.205 9.103-20.686 6.297l-.009-.004-.01-.003c-7.581-2.673-12.369-10.233-11.654-18.181l.052-.575-.472-.332-30.456-21.4445-2.133-11.3288 9.277-1.6551 6.9 4.8103 1.096 6.1451.178.998z" opacity=".4" stroke="#cda5dc" stroke-width="2"/><path clip-rule="evenodd" d="m242.029 90.4848c5.719 0 10.356 4.6366 10.356 10.3562v25.315c0 5.72-4.637 10.357-10.356 10.357h-25.316c-5.719 0-10.356-4.637-10.356-10.357v-25.315c0-5.7196 4.637-10.3562 10.356-10.3562zm-12.658 10.6852c-4.086 0-7.397 3.312-7.397 7.397 0 2.904 1.673 5.417 4.108 6.628l.001 11.455h6.576l.001-11.455c2.435-1.211 4.108-3.724 4.108-6.628 0-4.085-3.312-7.397-7.397-7.397z" fill-rule="evenodd" opacity=".4" stroke="#cda5dc" stroke-width="2"/><g opacity=".4"><path d="m817.711 119.407h37.132c2.921 0 5.188 2.22 5.188 4.837v23.345c0 2.617-2.267 4.837-5.188 4.837h-37.132c-2.922 0-5.189-2.22-5.189-4.837v-23.345c0-2.617 2.267-4.837 5.189-4.837z" stroke="#cda5dc" stroke-width="2"/><path d="m861.031 126.086h-49.509v5.829h49.509z" fill="#cda5dc"/><g stroke="#cda5dc" stroke-linecap="round" stroke-width="2"><path d="m817.233 140.697 17.728-.031"/><path d="m817.233 145.906h9.405"/></g></g><g opacity=".4" stroke="#cda5dc" stroke-width="2"><path d="m609.671 72.1258 2.549-5.4741c2.331-5.0412 8.275-7.2068 13.317-4.8756 5.041 2.3311 7.224 8.2997 4.875 13.3169l-2.382 5.4313"/><path d="m607.82 71.0316 22.047 10.2377c1.547.7149 2.223 2.5685 1.508 4.115l-7.847 16.8857c-.715 1.547-2.568 2.223-4.115 1.508l-22.047-10.238c-1.546-.7149-2.222-2.5685-1.507-4.115l7.846-16.8858c.715-1.5466 2.569-2.2226 4.115-1.5076z"/><path d="m616.254 82.3967c1.564.739 2.258 2.6166 1.519 4.181-.499 1.085-1.561 1.7677-2.682 1.8207l-2.349 5.2748-2.886-1.3376 2.544-5.1809c-.683-.9121-.85-2.1356-.351-3.2205.763-1.5825 2.616-2.2585 4.205-1.5375z"/></g><path d="m261.453 371.813h520.014v29.945h-520.014z" fill="#33103f"/><path d="m512.699 311.545h-229.217c-7.096 0-12.794-5.698-12.794-12.794v-110.416c0-16.987 13.762-30.856 30.856-30.856h211.155c7.096 0 12.794 5.698 12.794 12.794v128.585c0 6.989-5.698 12.687-12.794 12.687z" fill="#33103f" opacity=".6"/><path d="m767.504 311.545h-229.217c-7.096 0-12.794-5.698-12.794-12.794v-128.478c0-7.096 5.698-12.794 12.794-12.794h211.155c17.095 0 30.856 13.869 30.856 30.856v110.523c0 6.989-5.698 12.687-12.794 12.687z" fill="#33103f" opacity=".6"/><path d="m527.536 311.33h-289.59v-11.504c0-8.278 9.4-14.944 21.075-14.944h247.44c11.674 0 21.075 6.666 21.075 14.944z" fill="#cda5dc"/><path d="m800.589 311.545h-273.053v-11.504c0-8.278 8.863-14.944 19.871-14.944h233.31c11.008 0 19.872 6.666 19.872 14.944z" fill="#cda5dc"/><path d="m237.946 307.399h562.643v66.8475h-562.643z" fill="#4d225b"/><path d="m597.146 354.917c-1.248 6.293-4.206 14.955-6.801 21.651-1.483-3.17-2.89-7.599-3.063-12.202-.208-5.499 1.341-11.167 6.536-15.321 1.342-1.073 2.255-1.506 2.819-1.587.257-.037.397.005.477.047.082.045.19.139.298.356.236.473.371 1.32.327 2.587-.044 1.235-.252 2.75-.593 4.469z" stroke="#fdf8ff" stroke-width="1.79556"/><path d="m613.502 374.546c-6.223 1.56-15.318 2.586-22.482 3.101 2.233-2.696 5.636-5.86 9.724-7.983 4.884-2.537 10.67-3.558 16.646-.635 1.543.755 2.324 1.395 2.639 1.871.143.216.165.36.16.451-.005.093-.044.231-.194.422-.326.415-1.035.899-2.199 1.4-1.135.488-2.594.947-4.294 1.373z" stroke="#fdf8ff" stroke-width="1.79556"/><path d="m426.542 148.417c6.579-.526 20.922 1.579 25.659 14.211" stroke="#d3376c" stroke-linecap="round" stroke-width="1.79556"/><path d="m364.554 116.176c5.003-12.022 17.425-18.9175 30.084-15.147 12.659 3.771 16.166 12.842 20.206 21.192 12.21 25.317 17.347 13.936 36.469 22.465 24.42 10.863 8.349 43.336 44.35 48.903 34.63 6.926 30.795 60.806 30.795 60.806l-102.347-.988s-44.889-21.008-26.934-38.874c17.956-17.866-46.236-22.175-35.462-50.186 9.157-23.701-3.197-33.665 2.839-48.171z" fill="#ffd480"/><path d="m397.656 148.584s2.244 14.634 9.696 16.878c7.362 2.155 24.24 3.771 29.447 12.3 5.207 8.619-85.918 8.619-85.918 8.619s7.861-13.164 18.636-16.949c5.423-1.906 8.485-13.08 7.948-18.697-1.167-12.21 20.191-2.151 20.191-2.151z" fill="#e5af90"/><path d="m458.166 218.97 6.644 15.532s51.981-8.08 57.907 14.274c6.015 22.355-85.649 5.387-85.918 4.04-.269-1.346-7.99-35.103-7.99-35.103z" fill="#e5af90"/><path d="m470.735 380.211-19.571 2.155 11.401-27.921h15.891z" fill="#e5af90"/><path d="m480.162 282.623-26.934 82.326h25.497l42.735-86.546z" fill="#d3376c"/><path d="m582.778 379.044-19.571 2.155-14.096-25.228 17.687-4.489z" fill="#e5af90"/><path d="m500.721 246.352c21.188 1.706 29.537 2.335 33.577 9.248 3.95 6.912 52.969 109.349 52.969 109.349h-35.013l-54.226-80.62s-61.319 11.401-84.212-1.347c-9.337-5.207-11.941-36.63-11.941-36.63 23.971-4.937 85.649-1.077 98.846 0z" fill="#f17ba5"/><path d="m557.82 377.249h32.41s.718 8.17 9.157 9.786c2.963.538 6.554.898 10.055 1.077 6.644.359 11.851 5.925 11.851 12.569h-63.473z" fill="#cda5dc"/><path d="m445.777 378.326h32.41s.718 8.17 9.157 9.786c2.963.539 6.554.898 10.055 1.077 6.644.359 11.851 5.926 11.851 12.569h-63.473z" fill="#cda5dc"/><path d="m422.646 168.943s14.153-1.595 30.582 34.585c4.13 9.068 8.799 20.739 8.799 20.739l-20.652 3.158 5.389 16.503-43.542 19.213c-2.873-25.766-36.426-89.951-36.426-89.951s61.206 28.838 55.85-4.247z" fill="#051627"/><path d="m506.108 246.532h-52.7c-1.347 0-2.424-1.077-2.424-2.424s1.077-2.424 2.424-2.424h52.7c1.346 0 2.424 1.077 2.424 2.424-.09 1.347-1.167 2.424-2.424 2.424z" fill="#fdf8ff"/><path d="m540.942 204.246-32.59 41.388c-.808 1.077-2.334 1.257-3.322.359-1.077-.808-1.257-2.334-.359-3.322l32.59-41.387c.808-1.078 2.334-1.257 3.322-.359.987.718 1.167 2.244.359 3.321z" fill="#fdf8ff"/><path d="m367.49 174.171c-3.681.449-8.08-.718-10.324-5.836 0 0-10.055-30.075-25.587-27.651-25.094-3.736-26.578 22.781-18.857 26.742 7.721 3.962 7.176 6.745 7.721 10.863 0 0-.148 4.753 1.326 5.01 1.474.256 3.413-.797 3.413-.797s7.385 5.854 10.527 7.29c3.142 1.437 9.786-7.003 9.786-7.003s4.758 8.978 6.284 12.569c1.526 3.592 15.711-21.187 15.711-21.187z" fill="#c3916a"/><path d="m345.495 182.79s9.067-9.966 8.169-18.405l3.502 3.95s1.436 3.232 3.322 4.22c0 0-11.402 14.005-12.749 14.634z" fill="#a87c5b"/><path d="m357.166 168.335s2.334-14.095-2.514-22.444c-3.95-6.734-10.594-15.801-22.534-11.671-12.749 4.399-6.285-2.963-6.285-2.963-16.878 3.501-26.4 25.702-14.517 34.749 2.101-10.969 15.415-7.277 19.545-13.831 0 0 .449 7.99 7.99 8.439 0 0 .898-9.696 6.015-7.721 5.207 1.975 4.04 10.325 2.065 11.851.09.09 3.681 3.412 10.235 3.591z" fill="#051627"/><path d="m318.983 169.567s1.361-2.945 6.226-2.945" opacity=".17" stroke="#000" stroke-linecap="round" stroke-miterlimit="10" stroke-width="1.70569"/><path d="m273.672 266.014-9.516 12.389 15.98 5.297 8.17-13.108z" fill="#c3916a"/><path d="m400.439 272.927s-1.257 18.584-15.532 20.559c-23.252 3.142-63.922.987-68.77.987-8.259 0-11.491-14.723-5.386-20.379 5.207-4.758 33.846-3.771 32.769-4.13-1.078-.359-30.974-21.367-30.974-21.367l-22.085 28.998s-19.572-13.018-20.2-11.851c-1.616 3.053 24.06-38.245 31.242-42.913 5.656-3.681 9.248-3.771 23.881 3.052 14.634 6.823 43.004 26.395 43.004 26.395z" fill="#034ea6"/><path d="m360.937 173.363c1.975-1.616 4.578-2.155 7.002-1.347 10.414 3.412 37.797 16.609 38.605 59.613.244 11.349-1.579 25.273-2.963 36.001-1.347 9.875-7.003 6.194-7.003 6.194s-31.691-3.411-38.604-21.995-13.018-57.099-7.811-66.167c3.232-5.476 7.721-9.785 10.774-12.299z" fill="#cda5dc"/><path d="m363.271 190.69s8.529 7.182 11.94 23.163c1.437 6.643 2.424 18.314.359 24.599-4.489 13.287-15.801 25.138-21.816 26.036 0 0-12.838-5.567-14.454-14.814l14.454-19.841s-5.117-26.035-2.065-33.667c3.053-7.631 11.582-5.476 11.582-5.476z" fill="#cda5dc"/><path d="m364.887 270.144c-6.105 3.232-21.727 1.885-21.727 1.885" opacity=".18" stroke="#000" stroke-linecap="round" stroke-miterlimit="10" stroke-width="2.01444"/><path d="m362.373 259.191s12.21-15.712 13.197-20.649c.988-4.938-4.04-31.333-5.745-39.144" opacity=".6" stroke="#733c86" stroke-linecap="round" stroke-miterlimit="10" stroke-width="2.01444"/><path d="m298.688 275.954h56.768c1.468 0 2.569-1.102 2.569-2.57s-1.101-2.569-2.569-2.569h-56.768c-1.468 0-2.569 1.101-2.569 2.569 0 1.346 1.101 2.57 2.569 2.57z" fill="#fdf8ff"/><path d="m261.128 230.319 35.113 44.656c.856 1.101 2.447 1.346 3.67.489 1.101-.856 1.346-2.447.49-3.67l-35.113-44.656c-.857-1.101-2.447-1.346-3.671-.489-1.101.856-1.346 2.569-.489 3.67z" fill="#fdf8ff"/><path d="m347.829 261.166s-6.733 5.027-8.619 5.297c-1.885.269-16.699 2.244-18.763.449-2.065-1.886-.629-5.477-4.489-3.681-3.053 1.346-3.911 4.403-5.395 2.324-.09-2.244 6.382-6.275 9.076-6.903 2.693-.628 11.761-.269 13.556-.628 2.065-.36 6.823-5.656 6.823-5.656s2.155 4.848 7.811 8.798z" fill="#c3916a"/><path d="m309.045 276.159s-12.749-.629-16.16-.719c-3.412-.089-8.799 1.706-8.888 7.811 0 6.554 4.04 10.774 7.002 10.235l21.547.09c0-.09-6.284-6.464-3.501-17.417z" fill="#66cbff"/><path d="m312.546 248.597-1.167-10.235" opacity=".18" stroke="#000" stroke-linecap="round" stroke-miterlimit="10" stroke-width="2.01444"/><path d="m319.549 264.936s2.783-1.893 6.788-1.632" opacity=".18" stroke="#000" stroke-linecap="round" stroke-miterlimit="10" stroke-width=".897781"/><path d="m318.707 262.818s2.783-1.894 6.788-1.633" opacity=".18" stroke="#000" stroke-linecap="round" stroke-miterlimit="10" stroke-width=".897781"/><path d="m352.408 231.719s6.643-.808 9.965.718" opacity=".6" stroke="#733c86" stroke-linecap="round" stroke-miterlimit="10" stroke-width="2.01444"/><path d="m282.56 282.802-23.342-6.643s-.539 6.105-6.733 7.272c-2.245.449-4.938.628-7.452.808-4.938.269-8.798 4.399-8.798 9.337h47.043z" fill="#66cbff"/><path d="m498.028 284.329 3.361-13.656" opacity=".6" stroke="#d3376c" stroke-linecap="round" stroke-width="1.79556"/><path d="m460.056 240.592c1.676-1.331 4.863-4.332 4.201-5.693" opacity=".12" stroke="#000" stroke-linecap="round" stroke-miterlimit="10" stroke-width=".897781"/><g stroke-width="1.79556"><path d="m498.215 363.969c-4.963 4.132-12.791 9.04-19.079 12.634.809-3.408 2.475-7.758 5.239-11.466 3.292-4.415 8.092-7.867 14.855-7.841 1.746.007 2.751.243 3.26.538.233.136.32.259.358.345.038.087.064.226.015.461-.109.513-.533 1.257-1.365 2.216-.811.936-1.93 1.987-3.283 3.113z" stroke="#fdf8ff"/><path d="m490.937 380.095c-3.097-.34-7.185-1.25-10.657-2.16 1.688-.621 3.732-1.168 5.799-1.352 3.158-.282 6.181.294 8.186 2.488.445.488.589.781.631.912-.014.008-.032.016-.052.026-.239.11-.693.201-1.406.221-.69.02-1.536-.028-2.501-.135z" stroke="#fdf8ff"/><path d="m509.905 216.124c-3.184-13.11-17.169-16.924-23.764-17.193-5.282-.552-16.817-4.608-20.698-16.413" stroke="#d3376c" stroke-linecap="round"/><path d="m434.894 148.392c6.595.269 20.581 4.083 23.765 17.193" stroke="#d3376c" stroke-linecap="round"/><path d="m426.313 254.246c1.157 4.898 8.23 14.073 27.269 11.59 23.8-3.104 45.797-6.393 62.008-.874 12.969 4.415 38.668 68.622 54.081 99.317" opacity=".6" stroke="#d3376c" stroke-linecap="round"/></g><circle cx="324.238" cy="173.131" fill="#051627" r="1.48593"/><path d="m329.868 185.681c.78-.728 2.105-2.792 1.17-5.226" opacity=".24" stroke="#000" stroke-linecap="round" stroke-miterlimit="10" stroke-width="1.2"/><path d="m652.275 177.004s-3.322 3.143-11.043 3.502c-6.015.269-21.636 17.776-36.181 29.896-8.618 7.182 4.579 87.533 1.976 82.596-2.604-4.938 31.242-9.337 26.484-15.891-4.848-6.554-7.362-41.029-7.362-41.029s29.537-26.215 32.859-30.345" fill="#af7951"/><path d="m748.966 366.346-3.861 20.11s35.193 1.796 35.193 14.545c0 0-27.741-.449-41.208-.449-13.377 0-15.98 1.436-14.544-8.44 1.436-9.875 7.901-32.05 7.901-32.05z" fill="#66cbff"/><path d="m769.255 390.766s-4.488 6.105-4.04 9.875l15.083.27c0 .09-.179-7.362-11.043-10.145z" fill="#fdf8ff"/><path d="m725.174 388.432s10.684 1.616 10.594 12.299l-7.9.18c-2.514.09-4.399-2.155-4.04-4.669z" fill="#fdf8ff"/><path d="m678.221 366.346 3.86 20.111s-35.193 1.795-35.193 14.544c0 0 27.741-.449 41.208-.449s15.981 1.436 14.544-8.439c-1.436-9.876-7.9-32.051-7.9-32.051z" fill="#66cbff"/><path d="m657.931 390.766s4.489 6.105 4.04 9.875l-15.083.27c0 .09.18-7.362 11.043-10.145z" fill="#fdf8ff"/><path d="m701.922 388.432s-10.684 1.616-10.594 12.299l7.901.18c2.513.09 4.399-2.155 4.04-4.669z" fill="#fdf8ff"/><path d="m747.08 260.229c-1.526-3.412-5.745-41.209-8.08-47.673l18.877-2.343s.156-16.151-9.54-33.209c-9.875-17.237-33.397-13.826-33.397-13.826s4.489 18.584-12.749 17.597c-17.237-.988-17.058-18.584-17.058-18.584s-40.669 6.733-48.3 21.367c-4.04 7.631 13.287 33.308 13.287 33.308l7.721-.808c4.04 15.082 8.529 54.854 8.529 54.854s53.059 22.983 54.764 21.996c1.616-.988 25.946-32.679 25.946-32.679z" fill="#733c86"/><path d="m719.878 278.184c.628-1.885 17.865-24.33 36.27-22.983 18.404 1.347 22.085 12.479 19.033 33.667l-17.597 82.955-32.41.538 9.204-72.587s-27.814 2.8-40.694 0l7.789 74.473-25.587-.988s-26.305-78.017-23.522-103.963c2.784-25.946 33.577-8.619 42.914 1.437 3.951 4.219 7.183 7.451 7.183 7.451z" fill="#034ea6"/><path d="m684.056 164.705 2.334 11.042s3.502 14.724 22.535 5.836c2.962-1.347 4.758-3.771 5.835-6.285 1.706-3.95 1.706-8.439.18-12.389l-3.502-9.247s-1.256-8.26.898-14.903c2.514-7.542 1.257-18.135-2.962-20.829-7.452-4.668-31.872-9.875-35.822-.538-3.95 9.247-3.486 14.16-.359 22.248-.808 5.028-1.975 6.121 0 10.7 2.065 4.579 4.758 9.158 7.541 11.402 3.322 2.963 3.322 2.963 3.322 2.963z" fill="#af7951"/><path d="m679.153 152.942c1.365 1.333 5.236 3.199 9.806 0" opacity=".25" stroke="#000" stroke-linecap="round" stroke-miterlimit="10" stroke-width=".897781"/><path d="m684.146 137.123-2.065 10.773c-.18.898.449 1.885 1.436 1.975l.988.18" opacity=".18" stroke="#000" stroke-linecap="round" stroke-miterlimit="10" stroke-width=".897781"/><path d="m688.959 134.972 7.178.553" opacity=".23" stroke="#000" stroke-linecap="round" stroke-miterlimit="10" stroke-width="3.33158"/><path d="m679.012 134.311h-5.66" opacity=".23" stroke="#000" stroke-linecap="round" stroke-miterlimit="10" stroke-width="3.33158"/><path d="m684.056 164.705s6.644 2.334 19.033-8.439c1.885-1.616 2.424-5.208 2.963-7.991.538-3.322 1.706-5.566 5.117-3.77l.18 9.067 2.334 6.105s-6.015 14.634-28.998 7.811z" fill="#966845"/><path d="m691.375 143.559c.732-.132 1.184-1.029 1.009-2.005-.174-.976-.91-1.661-1.642-1.53s-1.184 1.028-1.009 2.004c.175.977.91 1.662 1.642 1.531z" fill="#051627"/><path d="m678.103 142.917c.733-.123 1.195-1.015 1.032-1.993-.164-.978-.891-1.672-1.625-1.549-.733.123-1.195 1.015-1.032 1.993.164.978.891 1.671 1.625 1.549z" fill="#051627"/><path d="m660.983 120.085c-.179 2.783 1.975 5.207 4.848 5.297.988.09 1.885-.18 2.693-.629.27-.179.539-.359.808-.538.27-.18.539-.449.719-.718.718.538 1.526.897 2.513.987 1.527.09 2.873-.628 3.771-1.796.718 1.078 1.885 1.706 3.322 1.796.808 0 1.526-.09 2.155-.449 0 .18-.09.359-.09.539-.09 2.334 1.706 4.399 4.04 4.489.808 0 1.526-.18 2.244-.539.539 2.334 2.604 4.22 5.207 4.309 3.053.18 5.746-2.244 5.836-5.296 0-.36 0-.719-.09-.988 0-.269.09-.718.18-1.077.269-1.257 2.334-1.706 3.501.987.09.18.18.27.269.449.629.898 1.527 1.526 2.694 1.526 1.616.09 3.052-.987 3.501-2.424l3.861.18c.269 1.526 1.616 2.693 3.232 2.783s3.052-.988 3.501-2.424h.09c1.885.09 3.501-1.347 3.591-3.232.09-1.706-1.077-3.232-2.783-3.501.538-.629.898-1.527.987-2.424.09-1.796-1.077-3.412-2.693-4.04.269-.449.539-1.078.539-1.616.089-1.886-1.347-3.502-3.232-3.592-1.347-.089-2.514.629-3.143 1.706 0 0-1.616.898-2.513-.09-.898-.987.449-2.693.449-2.693.718-.628 1.256-1.526 1.256-2.514.09-1.885-1.346-3.501-3.232-3.591-1.256-.09-2.334.539-3.052 1.526v.09c-.09.09-.18.27-.269.449-.36.629-1.167 1.437-2.155.808-.808-.539-.718-1.167-.449-1.526.09-.09.269-.269.359-.449.359-.539.539-1.077.629-1.796.089-1.9747-1.437-3.5907-3.322-3.6805-.808 0-1.526.1796-2.155.6285-.449-1.2569-1.616-2.2445-3.052-2.3343-1.167-.0897-2.155.4489-2.783 1.2569-.539-2.1546-2.424-3.7707-4.669-3.8604-2.693-.1796-5.027 1.8853-5.297 4.6684-.449-.2693-.987-.4489-1.526-.4489-1.885-.0897-3.501 1.3467-3.591 3.232-.09 1.0773.359 1.9753 1.077 2.6933 0 0 .629.898-.09 1.526-.628.629-1.346.449-1.526.18-.179-.18-.359-.898-.449-1.526 0-.18-.09-.359-.09-.629 0-.09 0-.09 0-.09-.448-1.346-1.616-2.3338-3.142-2.3338-1.885-.0898-3.501 1.3468-3.591 3.2318 0 .539.09 1.078.359 1.616v.09c.18.359.359.718.718.988.36.538.629 1.167.449 1.436-.359.539-.089.718-2.513.449-.18 0-.27 0-.36 0-1.705.09-3.142 1.436-3.232 3.232-.089 1.347.629 2.514 1.706 3.142 0 0 1.257.718.09 1.526-.808.539-1.436.808-1.796.988-.089 0-.179.09-.179.09-2.604 0-4.04 1.795-4.13 3.95zm9.337-3.412c-.09 0-.09 0 0 0z" fill="#051627"/><path d="m704.077 155.188c-.09.18-10.415 13.467-20.56 10.235-7.361-2.334-10.414-14.993-10.414-14.993s5.836 10.953 8.26 9.427c2.424-1.527 2.154-2.514 2.154-2.514s.719 3.501 3.861 3.681" fill="#051627"/><path d="m645.99 245.864c.988.449 11.492 19.751 9.517 39.502-.18 1.706-.449 3.322-.808 5.028h-57.907s-7.541-30.973 15.352-56.65l28.28 3.591z" fill="#f17ba5"/><path d="m641.147 233.223s16.484 7.352 18.818 20.639c0 0-13.077 1.249-14.334 4.032l-14.275-21.905z" fill="#f17ba5"/><path d="m653.352 284.289 16.34 16.34s-9.337-7.811-20.739 0l-22.086-10.145s7.901-13.018 26.485-6.195z" fill="#0572ec"/><path d="m597.062 284.289-16.34 16.34s9.337-7.811 20.739 0l21.996-10.145c.09 0-7.811-13.018-26.395-6.195z" fill="#0572ec"/><path d="m641.214 251.573c2.563 0 4.605 2.143 4.483 4.703l-1.457 30.614c-.114 2.394-2.088 4.276-4.484 4.276h-25.616c-2.479 0-4.489-2.01-4.489-4.489v-30.615c0-2.479 2.01-4.489 4.489-4.489z" fill="#fdf8ff"/><path d="m659.816 253.812s3.501 10.097 0 14.407c-2.334 2.873-6.725 3.728-8.144 4.769-.539 2.244-2.45 5.735-10.171 3.67s-4.668-9.965.18-9.786c1.31.049.964.045 1.736 0 .503-.029.782-5.615 2.008-5.985 1.46-.679.969 5.733 1.149 5.439.247-.404.612-1.222.583-2.057-.131-3.816.834-7.489.834-7.489s6.474-4.875 11.825-2.968z" fill="#e5af90"/><path d="m638.182 269.095c1.906.669 5.96 1.806 6.923 1.004" opacity=".12" stroke="#000" stroke-linecap="round" stroke-miterlimit="10" stroke-width=".897781"/><path d="m637.298 271.777c1.549 1.155 6.821 1.957 7.784 1.155" opacity=".12" stroke="#000" stroke-linecap="round" stroke-miterlimit="10" stroke-width=".897781"/><path d="m639.766 275.551c1.988.36 4.667 0 4.667 0" opacity=".12" stroke="#000" stroke-linecap="round" stroke-miterlimit="10" stroke-width=".897781"/><path d="m588.263 310.325s-4.961-1.068-7.721-8.978c-2.759-7.91-3.533-9.568-.898-15.083 2.636-5.515 8.816-2.296 12.228 1.924 2.111 2.611 9.916 9.956 9.499 13.159-.359 2.065-3.951 9.427-13.108 8.978z" fill="#66cbff"/><path d="m660.45 309.299s4.961-1.067 7.72-8.977c2.76-7.911 3.534-9.568.898-15.083-2.635-5.515-8.816-2.296-12.227 1.923-2.111 2.611-9.917 9.957-9.499 13.16.359 2.064 3.95 9.426 13.108 8.977z" fill="#66cbff"/><path d="m643.746 230.332c2.628 0 4.758-2.652 4.758-5.925 0-3.272-2.13-5.925-4.758-5.925s-4.759 2.653-4.759 5.925c0 3.273 2.131 5.925 4.759 5.925z" fill="#cc9c81"/><path d="m609.81 230.243c2.627 0 4.758-2.653 4.758-5.926 0-3.272-2.131-5.925-4.758-5.925-2.628 0-4.759 2.653-4.759 5.925 0 3.273 2.131 5.926 4.759 5.926z" fill="#cc9c81"/><path d="m642.938 211.3s2.513 15.352-1.167 21.636c-3.771 6.285-11.312 7.99-18.764 7.452-7.452-.539-12.838-6.285-13.018-14.455-.179-8.169 0-17.865 0-17.865s5.207-15.442 18.764-10.684c13.556 4.758 14.185 13.916 14.185 13.916z" fill="#e5af90"/><path d="m622.237 207.607s8.39 10.488 21.413 12.062c3.591-.18 8.086-8.369 2.789-20.849-5.297-12.479-23.342-10.593-28.19-6.105 0 .09 2.372 13.366 3.988 14.892z" fill="#ffd480"/><path d="m623.546 206.003s-1.609 8.868-13.658 12.295l-1.698.407s-11.364-25.072 10.847-26.581z" fill="#ffd480"/><path d="m624.309 223.215v4.668h2.154" opacity=".6" stroke="#af7951" stroke-linecap="round" stroke-miterlimit="10" stroke-width=".897781"/><path d="m620.801 219.162s-1.048-1.168-3.608-.907c-2.561.26-3.437 1.394-3.437 1.394" opacity=".4" stroke="#af7951" stroke-linecap="round" stroke-miterlimit="10" stroke-width="1.79556"/><path d="m620.762 224.228s-1.094-1.573-3.113-1.312c-2.019.26-2.523 1.312-2.523 1.312" stroke="#051627" stroke-linecap="round" stroke-miterlimit="10" stroke-width=".897781"/><path d="m636.366 219.554s-.927-1.266-3.501-1.259c-2.574.006-3.558 1.048-3.558 1.048" opacity=".4" stroke="#af7951" stroke-linecap="round" stroke-miterlimit="10" stroke-width="1.79556"/><path d="m635.447 224.331s-.888-1.568-2.907-1.307c-2.019.26-2.589 1.508-2.589 1.508" stroke="#051627" stroke-linecap="round" stroke-miterlimit="10" stroke-width=".897781"/><path d="m609.63 201.873s0-21.57-15.309-21.106c-15.31.464 2.256 23.397 15.309 21.106z" fill="#ffd480"/><path d="m641.322 202.501s26.399-6.8 19.56-18.455c-6.839-11.656-21.096 4.912-19.56 18.455z" fill="#ffd480"/><path d="m612.13 233.793s-13.812 7.852-17.493 17.996c0 0 6.105 9.966 9.607 10.415 3.411.359 7.886-28.411 7.886-28.411z" fill="#f17ba5"/><path d="m595.625 253.226s-6.518 24.909-.502 32.989c0 0 4.143-3.105 8.575-3.706 3.681.179 1.174-16.265 3.329-21.472z" fill="#e5af90"/><path d="m625.566 240.486c-8.058.269-12.274-3.998-13.413-6.642l-2.186 1.222c-.258.989 3.482 8.396 14.606 10.513 15.265 2.904 20.871-5.093 21.83-9.416l-2.38-1.515-2.529-1.256c-2.192 3.547-7.521 6.813-15.928 7.094z" fill="#d3376c" opacity=".5"/><path d="m732.446 214.172 1.706 23.971s-35.103 1.885-40.4 4.22c-5.387 2.334-11.312 3.142-18.404 7.272 0 0-13.288 4.04-12.3 6.374 1.257 3.142 12.479.09 13.467-.808 0 0 3.052 16.16 5.117 15.352 0 0 3.412 2.693 4.579.09 0 0 3.411-.449 3.95-2.694.539-2.244 5.297-8.169 6.105-12.838.808-4.578 9.696-2.603 9.696-2.603s37.886 11.491 50.186 2.783c0 0 4.613-29.657 1.83-45.278-15.332-8.017-25.532 4.159-25.532 4.159z" fill="#af7951"/><path d="m734.6 299.556s2.515-9.431 7.004-19.038" opacity=".18" stroke="#000" stroke-linecap="round" stroke-miterlimit="10" stroke-width="2.01444"/><path d="m693.577 298.602s-2.428-10.363-6.917-19.969" opacity=".18" stroke="#000" stroke-linecap="round" stroke-miterlimit="10" stroke-width="2.01444"/><path d="m731.908 213.454s-2.455-6.598-4.792-16.759" opacity=".3" stroke="#000" stroke-linecap="round" stroke-miterlimit="10" stroke-width="2.01444"/><path d="m657.841 216.148s-1.257-9.068-1.257-18.136" opacity=".3" stroke="#000" stroke-linecap="round" stroke-miterlimit="10" stroke-width="2.01444"/><ellipse cx="710.957" cy="142.163" fill="#af7951" rx="5.49335" ry="7.88723" transform="matrix(.98370071 .17981355 -.17981355 .98370071 37.150929 -125.522548)"/><path d="m682.04 270.269c-.691-3.765-1.99-11.689-1.658-13.265.332-1.575 3.247-4.732 4.663-6.114" opacity=".18" stroke="#000" stroke-linecap="round" stroke-miterlimit="10" stroke-width=".897781"/><path d="m685.055 270.269c-.691-3.765-.86-10.755-.528-12.33s2.944-4.984 4.36-6.366" opacity=".18" stroke="#000" stroke-linecap="round" stroke-miterlimit="10" stroke-width=".897781"/><path d="m688.931 269.3c-.691-3.765-.331-9.001 0-10.576.332-1.576 3.074-5.943 4.49-7.325" opacity=".18" stroke="#000" stroke-linecap="round" stroke-miterlimit="10" stroke-width=".897781"/><path d="m734.593 238.506c2.937.715 5.081.556 9.606 4.764" opacity=".18" stroke="#000" stroke-linecap="round" stroke-miterlimit="10" stroke-width="1.79556"/><g clip-path="url(#b)"><path d="m619.814 230.492 11.637-.404s-1.363 6.882-5.728 6.94c-1.001.013-1.915-.349-2.651-.963-2.207-1.843-3.258-5.573-3.258-5.573z" fill="#051627"/><path d="m621.401 230.361s1.106 1.297 4.199 1.334c3.178-.15 4.131-1.555 4.131-1.555z" fill="#fff"/><path d="m623.164 236.145s.157-.707 2.428-.991c2.27-.284 3.034.611 3.034.611s-2.426 2.63-5.462.38z" fill="#f17ba5"/></g><path d="m563.879 377.313h16.843v7.576c0 4.651-3.77 8.421-8.421 8.421s-8.422-3.77-8.422-8.421z" fill="#733c86" opacity=".6"/><path d="m453.228 378.676h16.843v7.575c0 4.651-3.77 8.421-8.421 8.421s-8.422-3.77-8.422-8.421z" fill="#733c86" opacity=".6"/><path d="m248.705 283.931c9.038-.986 10.093-5.269 10.336-8.147l7.213 2.376c.313 2.591-.204 7.487-8.278 7.779s-11.257-.549-9.271-2.008z" fill="#fdf8ff"/><g fill="#0572ec" opacity=".5"><circle cx="594.527" cy="303.1" r="1.9534"/><circle cx="585.314" cy="301.146" r="1.9534"/><circle cx="589.704" cy="293.862" r="1.9534"/><circle cx="581.407" cy="291.263" r="1.9534"/></g><g fill="#0572ec" opacity=".5"><circle r="1.9534" transform="matrix(-1 0 0 1 653.346 302.47)"/><circle r="1.9534" transform="matrix(-1 0 0 1 662.559 300.517)"/><circle r="1.9534" transform="matrix(-1 0 0 1 658.168 293.232)"/><circle r="1.9534" transform="matrix(-1 0 0 1 666.466 290.633)"/></g><path d="m758.918 216.919c-7.707-2.169-21.464 0-25.907 5.332l.355 5.029c8.445-7.486 22.201-6.913 25.552-4.922z" fill="#051627"/><path d="m758.919 225.491c-6.676-2.716-18.599-1.684-25.421 4.801v2.386c9.83-7.623 19.433-6.006 25.276-4.952z" fill="#051627"/><ellipse cx="607.869" cy="198.271" fill="#f17ba5" rx="6.29714" ry="2.19427" transform="matrix(.57039393 -.82137127 .82137127 .57039393 98.290111 584.46456)"/><ellipse cx="645.595" cy="196.5" fill="#f17ba5" rx="6.29714" ry="2.19427" transform="matrix(.70798247 .70623 -.70623 .70798247 327.299251 -398.557115)"/><path clip-rule="evenodd" d="m344.746 162.061c1.024-.32 1.826-1.202 1.99-2.334.227-1.572-.863-3.031-2.435-3.259-1.573-.227-3.031.863-3.259 2.435-.164 1.132.356 2.206 1.246 2.803l-.432 2.991c-.099.678.372 1.308 1.051 1.406.679.099 1.308-.372 1.407-1.051z" fill="#fdf8ff" fill-rule="evenodd"/><path d="m711.173 139.479c1.022 1.444 2.328 4.532-.625 5.336" opacity=".18" stroke="#000" stroke-linecap="round" stroke-miterlimit="10" stroke-width=".897781"/><path d="m398.416 151.182s-6.053 3.54-9.635 4.444c-3.581.905-5.35 1.435-11.328-3.108 0 0-.155 3.108-.769 6.079 1.92 4.915 10.32 10.77 24.811 1.303 0 0-1.277-2.553-1.883-4.274-.596-1.695-1.196-4.444-1.196-4.444z" fill="#cc9c81"/><path d="m398.559 148.586c4.76-.989 9.187-1.908 10.2-7.958 1.016-6.07-.119-7.65-5.411-6.933-5.289 0-13.171-1.901-13.171 2.878 0 4.78 3.047 12.022 8.336 12.022z" fill="#cc9c81"/><path clip-rule="evenodd" d="m366.903 121.934c-.503-5.529 2.01-10.957 6.735-15.179 1.005-.804 2.01-1.608 3.116-2.211 0 0 .402-.201 1.206-.603 1.106-.503 2.111-.905 3.116-1.207 1.006-.301 2.111-.603 3.318-.904.804-.201 1.306-.201 1.306-.201 1.207-.201 2.513-.201 3.82-.101 6.333.603 11.56 3.518 14.475 8.243 2.815 4.724.201 9.449.805 12.163h.772c0 1.704-1.898 13.309-3.186 21.091-.947 9.816-7.752 11.099-14.556 14.549-6.805 3.449-9.1 1.103-10.921-1.226s-6.646-8.222-6.768-15.898c0-2.312-.223-6.051-.625-8.665-1.306-2.513-2.111-4.322-2.613-9.851z" fill="#e5af90" fill-rule="evenodd"/><path d="m371.58 126.381s11.573-5.258 26.26 1.291c0-9.216 2.911-14.303 7.276-16.811-.309-6.745-11.753-13.5296-25.997-7.843-10.685 4.825-12.82 12.085-14.073 21.612l4.903 11.483s-.782-6.107-.277-11.057c.505-4.951 1.908-8.267 1.908-8.267z" fill="#ffd480"/><path d="m379.454 131.447c-1.378-1.59-5.89-2.628-8.368.568" opacity=".7" stroke="#a87c5b" stroke-linecap="round" stroke-width="1.39002"/><path d="m394.848 132.482c-1.085-1.661-4.661-3.614-9.261-.674" opacity=".7" stroke="#a87c5b" stroke-linecap="round" stroke-width="1.39002"/><path d="m381.926 137.142-.47 6.919 3.023.092" opacity=".14" stroke="#000" stroke-linecap="round" stroke-miterlimit="10" stroke-width="1.00522"/><g clip-path="url(#c)"><path d="m376.238 147.13 11.742.382s-1.71 4.971-6.109 4.759c-1.009-.049-1.912-.368-2.623-.862-2.134-1.48-3.01-4.279-3.01-4.279z" fill="#051627"/><path d="m377.841 147.175s1.023 1.591 4.135 1.832c3.211.028 4.268-1.557 4.268-1.557z" fill="#fff"/><path d="m379.606 151.61s.135-.912 2.44-1.076c2.305-.165 3.081.883 3.081.883s-2.393 1.998-5.521.193z" fill="#f17ba5"/></g><circle cx="403.276" cy="146.506" fill="#733c86" r="3.28967"/><path d="m402.524 110.083c-1.827 5.913-4.076 18.226 1.633 23.358.772.695 9.577-25.38-1.633-23.358z" fill="#ffd480"/><path d="m378.179 136.828s-1.094-1.573-3.112-1.312c-2.019.26-2.523 1.312-2.523 1.312" stroke="#051627" stroke-linecap="round" stroke-miterlimit="10"/><path d="m386.528 137.173s1.576-1.505 3.963-1.103c2.386.402 2.819 1.494 2.819 1.494" stroke="#051627" stroke-linecap="round" stroke-miterlimit="10"/><path d="m712.482 200.046c-8.579 3.3-27.479 4.438-37.13 0l2.208 25.848c13.498 5.46 29.877 1.558 39.043 0z" fill="#cda5dc" opacity=".2"/></g></svg>